# AST/ASF file generated using VICON BodyLanguage
# -----------------------------------------------
:version 1.10
:name VICON
:units
  mass 1.0
  length 0.45
  angle deg
:documentation
   .ast/.asf automatically generated from VICON data using
   VICON BodyBuilder and BodyLanguage model FoxedUp or BRILLIANT.MOD
:root
   order TX TY TZ RX RY RZ
   axis XYZ
   position 0 0 0  
   orientation 0 0 0 
:bonedata
  begin
     id 1 
     name lhipjoint
     direction 0.692814 -0.645514 0.321437 
     length 2.38754 
     axis 0 0 0  XYZ
  end
  begin
     id 2 
     name lfemur
     direction 0.34202 -0.939693 0  
     length 6.41921  
     axis 0 0 20  XYZ
    dof rx ry rz
    limits (-160.0 20.0)
           (-70.0 70.0)
           (-60.0 70.0)
  end
  begin
     id 3 
     name ltibia
     direction 0.34202 -0.939693 0   
     length 6.98247   
     axis 0 0 20   XYZ
    dof rx
    limits (-10.0 170.0)
  end
  begin
     id 4 
     name lfoot
     direction 0.0947186 -0.260237 0.960888   
     length 1.83034   
     axis -90 7.62852e-016 20   XYZ
    dof rx rz
    limits (-45.0 90.0)
           (-70.0 20.0)
  end
  begin
     id 5 
     name ltoes
     direction 1.53538e-011 -4.21952e-011 1   
     length 0.920499   
     axis -90 7.62852e-016 20   XYZ
    dof rx
    limits (-90.0 20.0)
  end
  begin
     id 6 
     name rhipjoint
     direction -0.631686 -0.693949 0.345555   
     length 2.2209  
     axis 0 0 0  XYZ 
  end
  begin
     id 7 
     name rfemur
     direction -0.34202 -0.939693 0   
     length 6.49542   
     axis 0 0 -20   XYZ
    dof rx ry rz
    limits (-160.0 20.0)
           (-70.0 70.0)
           (-70.0 60.0)
  end
  begin
     id 8 
     name rtibia
     direction -0.34202 -0.939693 0   
     length 7.21712   
     axis 0 0 -20   XYZ
    dof rx
    limits (-10.0 170.0)
 end
 begin
     id 9 
     name rfoot
     direction -0.0825378 -0.226771 0.970444   
     length 1.89724  
     axis -90 -7.62852e-016 -20   XYZ
    dof rx rz
    limits (-45.0 90.0)
           (-20.0 70.0)
  end
  begin
     id 10 
     name rtoes
     direction -1.53515e-011 -4.22016e-011 1   
     length 0.955868   
     axis -90 -7.62852e-016 -20   XYZ
    dof rx
    limits (-90.0 20.0)
  end
  begin
     id 11 
     name lowerback
     direction -0.0104711 0.984802 -0.173368   
     length 1.84931   
     axis 0 0 0   XYZ
    dof rx ry rz
    limits (-20.0 45.0)
           (-30.0 30.0)
           (-30.0 30.0)
  end
  begin
     id 12 
     name upperback
     direction -0.00286433 0.999996 -0.000382853   
     length 1.85768   
     axis 0 0 0   XYZ
    dof rx ry rz
    limits (-20.0 45.0)
           (-30.0 30.0)
           (-30.0 30.0)
  end
  begin
     id 13 
     name thorax
     direction 0.00167534 0.996793 0.0800069   
     length 1.92   
     axis 0 0 0   XYZ
    dof rx ry rz
    limits (-20.0 45.0)
           (-30.0 30.0)
           (-30.0 30.0)
  end
  begin
     id 14 
     name lowerneck
     direction -0.0672491 0.995415 0.068018   
     length 1.58923   
     axis 0 0 0   XYZ
    dof rx ry rz
    limits (-20.0 45.0)
           (-30.0 30.0)
           (-30.0 30.0)
  end
  begin
     id 15 
     name upperneck
     direction 0.0958019 0.982476 -0.159884   
     length 1.60189   
     axis 0 0 0   XYZ
    dof rx ry rz
    limits (-20.0 45.0)
           (-30.0 30.0)
           (-30.0 30.0)
  end
  begin
     id 16
     name head
     direction 0.032989 0.997338 -0.0650226  
     length 1.61681  
     axis 0 0 0   XYZ
    dof rx ry rz
    limits (-20.0 45.0)
           (-30.0 30.0)
           (-30.0 30.0)
  end
  begin
     id 17 
     name lclavicle
     direction 0.954279 0.298875 -0.00496069  
     length 2.99449  
     axis 0 0 0   XYZ
    dof ry rz
    limits (-20.0 10.0)
           (0.0 20.0)
  end
  begin
     id 18 
     name lhumerus
     direction 1 -4.48985e-011 -4.2057e-027   
     length 4.79185   
     axis 180 -30 -90   XYZ
    dof rx ry rz
    limits (-60.0 90.0)
           (-90.0 90.0)
           (-90.0 90.0)
  end
  begin
     id 19
     name lradius
     direction 1 -4.48945e-011 1.15441e-028   
     length 2.65553   
     axis 180 -30 -90   XYZ
    dof rx
    limits (-10.0 170.0)
  end
  begin
     id 20
     name lwrist
     direction 1 -4.4899e-011 4.8894e-028   
     length 1.32777   
     axis -2.56392e-016 90 90   XYZ
    dof ry
    limits (-180.0 0.0)
 end
  begin
     id 21 
     name lhand
     direction 1 -4.48908e-011 9.7788e-028   
     length 0.743904   
     axis -6.23971e-016 90 90   XYZ
    dof rx rz
    limits (-90.0 90.0)
           (-45.0 45.0)
  end
  begin
     id 22 
     name lfingers
     direction 1 -4.49068e-011 1.95576e-027   
     length 0.599754   
     axis -1.24794e-015 90 90   XYZ
    dof rx
    limits (0.0 90.0)
  end
  begin
     id 23
     name lthumb
     direction 0.707107 -6.34883e-011 0.707107   
     length 0.861131   
     axis -90 45 2.85299e-015   XYZ
    dof rx rz
    limits (-45.0 45.0)
           (-45.0 45.0)
  end
  begin
     id 24 
     name rclavicle
     direction -0.957921 0.286916 0.00811568   
     length 3.06817  
     axis 0 0 0   XYZ 
    dof ry rz
    limits (-10.0 20.0)
           (-20.0 0.0)
  end
  begin
     id 25 
     name rhumerus
     direction -1 -4.48971e-011 -3.07942e-027  
     length 4.77254   
     axis 180 30 90   XYZ
    dof rx ry rz
    limits (-90.0 60.0)
           (-90.0 90.0)
           (-90.0 90.0)
  end
  begin
     id 26 
     name rradius
     direction -1 -4.48957e-011 -9.6815e-028   
     length 2.75995   
     axis 180 30 90   XYZ
    dof rx
    limits (-10.0 170.0)
  end
  begin
     id 27 
     name rwrist
     direction -1 -4.48979e-011 4.8894e-028   
     length 1.37997   
     axis -2.56392e-016 -90 -90   XYZ
    dof ry
    limits (-180.0 0.0)
  end
  begin
     id 28
     name rhand
     direction -1 -4.48906e-011 9.7788e-028   
     length 0.701619   
     axis -6.23971e-016 -90 -90   XYZ
    dof rx rz
    limits (-90.0 90.0)
           (-45.0 45.0)
  end
  begin
     id 29
     name rfingers
     direction -1 -4.49018e-011 1.95576e-027   
     length 0.565663   
     axis -1.24794e-015 -90 -90   XYZ
    dof rx
    limits (0.0 90.0)
  end
  begin
     id 30
     name rthumb
     direction -0.707107 -6.34881e-011 0.707107   
     length 0.812183   
     axis -90 -45 -2.85299e-015   XYZ
    dof rx rz
    limits (-45.0 45.0)
           (-45.0 45.0)
  end
:hierarchy
  begin
    root lhipjoint rhipjoint lowerback
    lhipjoint lfemur
    lfemur ltibia
    ltibia lfoot
    lfoot ltoes
    rhipjoint rfemur
    rfemur rtibia
    rtibia rfoot
    rfoot rtoes
    lowerback upperback
    upperback thorax
    thorax lowerneck lclavicle rclavicle
    lowerneck upperneck
    upperneck head
    lclavicle lhumerus
    lhumerus lradius
    lradius lwrist
    lwrist lhand lthumb
    lhand lfingers
    rclavicle rhumerus
    rhumerus rradius
    rradius rwrist
    rwrist rhand rthumb
    rhand rfingers
  end

#!OML:ASF F:\VICON\USERDATA\INSTALL\rory3\rory3.ASF
:FULLY-SPECIFIED
:DEGREES
434
root 0.0474421 13.5256 -2.40847 9.86872 0.881495 1.72644
lowerback 27.0534 -0.011891 -0.870185
upperback 3.80393 -0.36399 -0.859167
thorax -10.7767 -0.150279 -0.337532
lowerneck -11.9702 -7.74153 -12.5895
upperneck 18.7563 -10.2677 10.4038
head 9.05288 -4.73911 4.39167
rclavicle 1.26725e-015 2.68359e-015
rhumerus 52.6971 20.797 -11.4158
rradius 68.2855
rwrist -64.8035
rhand -6.43872 12.7516
rfingers 7.12502
rthumb 19.4106 -16.2995
lclavicle 1.26725e-015 2.68359e-015
lhumerus 49.0239 -23.3974 10.1179
lradius 66.4423
lwrist 66.6268
lhand 3.89146 16.8457
lfingers 7.12502
lthumb 29.3121 44.5554
rfemur -57.4244 -2.28938 14.7999
rtibia 77.1889
rfoot -23.6005 -6.07352
rtoes -17.1074
lfemur -56.544 4.9356 -18.1808
ltibia 73.1994
lfoot -19.586 -7.2528
ltoes -14.513
435
root 0.046978 13.5472 -2.405 9.85313 0.897033 1.65465
lowerback 27.057 -0.020635 -0.797702
upperback 3.81182 -0.352847 -0.846213
thorax -10.7699 -0.147778 -0.368672
lowerneck -11.9453 -7.78628 -12.6467
upperneck 18.6701 -10.3392 10.5155
head 9.03769 -4.76751 4.42954
rclavicle 9.69075e-016 8.19987e-015
rhumerus 52.5978 20.715 -11.5191
rradius 68.3136
rwrist -64.9542
rhand -5.9868 12.6688
rfingers 7.12502
rthumb 19.845 -16.338
lclavicle 9.69075e-016 8.19987e-015
lhumerus 49.0699 -23.3787 10.0384
lradius 66.4725
lwrist 66.707
lhand 3.79803 16.7435
lfingers 7.12502
lthumb 29.2229 44.4687
rfemur -57.2204 -2.30013 14.894
rtibia 76.8996
rfoot -23.5316 -6.01501
rtoes -17.1135
lfemur -56.3278 4.88813 -18.0835
ltibia 72.9092
lfoot -19.5097 -7.21768
ltoes -14.5267
436
root 0.0458052 13.5661 -2.40336 9.86511 0.851265 1.70635
lowerback 27.1127 0.00596241 -0.850696
upperback 3.75313 -0.34022 -0.884431
thorax -10.8658 -0.140484 -0.385936
lowerneck -11.7296 -7.80058 -12.6778
upperneck 18.4943 -10.3879 10.6257
head 8.95226 -4.79043 4.47058
rclavicle -3.13086e-015 -7.50412e-015
rhumerus 52.4891 20.8213 -11.4899
rradius 68.395
rwrist -64.8197
rhand -6.33852 12.7117
rfingers 7.12502
rthumb 19.5069 -16.3297
lclavicle -3.13086e-015 -7.50412e-015
lhumerus 49.0747 -23.4757 9.91478
lradius 66.5486
lwrist 66.8039
lhand 3.778 16.8394
lfingers 7.12502
lthumb 29.2037 44.568
rfemur -57.0859 -2.29665 14.8472
rtibia 76.6341
rfoot -23.4321 -5.98378
rtoes -17.266
lfemur -56.1596 4.84463 -18.1229
ltibia 72.6315
lfoot -19.4261 -7.14187
ltoes -14.4773
437
root 0.043842 13.5844 -2.40306 9.93573 0.803558 1.66651
lowerback 27.1038 0.0322756 -0.860681
upperback 3.70106 -0.308633 -0.872625
thorax -10.9207 -0.125203 -0.37826
lowerneck -11.7997 -7.79494 -12.6016
upperneck 18.537 -10.3747 10.5511
head 8.9693 -4.78334 4.43237
rclavicle -2.38542e-015 -4.42296e-015
rhumerus 52.4177 20.8388 -11.4454
rradius 68.4554
rwrist -64.8479
rhand -6.55235 12.6054
rfingers 7.12502
rthumb 19.3013 -16.4568
lclavicle -2.38542e-015 -4.42296e-015
lhumerus 49.0041 -23.501 9.94012
lradius 66.5604
lwrist 66.8433
lhand 3.98494 17.0027
lfingers 7.12502
lthumb 29.4013 44.6968
rfemur -57.0345 -2.26421 14.9082
rtibia 76.3762
rfoot -23.3452 -5.91728
rtoes -17.042
lfemur -56.0763 4.86294 -18.0711
ltibia 72.366
lfoot -19.3142 -7.10103
ltoes -14.3931
438
root 0.0428113 13.6041 -2.40155 10.0187 0.808113 1.61767
lowerback 27.0086 0.0295681 -0.857538
upperback 3.70732 -0.304725 -0.831087
thorax -10.8637 -0.122747 -0.334422
lowerneck -11.8828 -7.78863 -12.5435
upperneck 18.4632 -10.3438 10.4665
head 8.94728 -4.77032 4.3944
rclavicle 4.02539e-015 9.39258e-015
rhumerus 52.3925 20.7122 -11.4242
rradius 68.5042
rwrist -65.0325
rhand -6.29616 12.4817
rfingers 7.12502
rthumb 19.5476 -16.5556
lclavicle 4.02539e-015 9.39258e-015
lhumerus 48.9053 -23.4493 9.97318
lradius 66.5648
lwrist 66.8307
lhand 3.97709 16.974
lfingers 7.12502
lthumb 29.3938 44.6694
rfemur -56.9583 -2.27369 14.974
rtibia 76.1026
rfoot -23.2799 -5.83815
rtoes -16.6103
lfemur -55.975 4.81093 -18.001
ltibia 72.0791
lfoot -19.1897 -7.10273
ltoes -14.0923
439
root 0.0425712 13.6265 -2.40035 10.0867 0.81567 1.53058
lowerback 26.9669 0.00615313 -0.794607
upperback 3.69509 -0.314104 -0.811473
thorax -10.8563 -0.129254 -0.345278
lowerneck -11.9792 -7.78624 -12.5075
upperneck 18.4563 -10.3393 10.4785
head 8.96066 -4.76171 4.39045
rclavicle 1.44119e-015 5.11871e-015
rhumerus 52.3499 20.665 -11.4438
rradius 68.5442
rwrist -65.023
rhand -6.23479 12.5086
rfingers 7.12502
rthumb 19.6066 -16.5227
lclavicle 1.44119e-015 5.11871e-015
lhumerus 48.8334 -23.4174 9.87511
lradius 66.5637
lwrist 66.8178
lhand 3.90974 16.796
lfingers 7.12502
lthumb 29.3295 44.5026
rfemur -56.8457 -2.25704 15.0776
rtibia 75.7846
rfoot -23.1622 -5.80019
rtoes -16.339
lfemur -55.8673 4.77811 -17.9051
ltibia 71.7759
lfoot -19.0661 -7.04798
ltoes -13.9717
440
root 0.0420704 13.6529 -2.39991 10.1123 0.779516 1.45884
lowerback 27.0027 0.0124502 -0.756785
upperback 3.68167 -0.294243 -0.797123
thorax -10.8903 -0.121315 -0.358039
lowerneck -12.0877 -7.80258 -12.5467
upperneck 18.4912 -10.3593 10.5445
head 9.00119 -4.76403 4.41421
rclavicle 3.80176e-015 -1.20265e-014
rhumerus 52.2608 20.5938 -11.5233
rradius 68.5251
rwrist -65.1089
rhand -5.95287 12.5941
rfingers 7.12502
rthumb 19.8777 -16.4093
lclavicle 3.80176e-015 -1.20265e-014
lhumerus 48.8126 -23.3729 9.85247
lradius 66.4874
lwrist 66.6982
lhand 3.92992 16.8553
lfingers 7.12502
lthumb 29.3488 44.5585
rfemur -56.6622 -2.17529 15.1554
rtibia 75.4234
rfoot -23.0041 -5.82362
rtoes -16.3327
lfemur -55.6852 4.76255 -17.814
ltibia 71.4302
lfoot -18.9124 -6.99021
ltoes -13.8826
